<svg xmlns="http://www.w3.org/2000/svg" enable-background="new 0 0 36 36" viewBox="0 0 36 36" id="github"><path fill="#efefef" d="m13.411 34.999c6.298-2.859 12.105-1.559 15.14-2.936 3.035-1.378 8.617-6.016 2.28-19.978s-15.841-12.12-19.18-10.605c-15.632 7.095-9.395 38.582 1.76 33.519z"></path><g fill="#a4afc1"><path d="m5.487 25.186h1v2h-1z" transform="rotate(-45.001 5.987 26.186)"></path><path d="m9.553 29.252h1v2h-1z" transform="rotate(-45.001 10.053 30.252)"></path><path d="m4.811 29.752h2v1h-2z" transform="rotate(-45.001 5.81 30.252)"></path><path d="m28.812 8.75c-.827 0-1.5-.673-1.5-1.5s.673-1.5 1.5-1.5 1.5.673 1.5 1.5-.673 1.5-1.5 1.5zm0-2c-.276 0-.5.224-.5.5s.224.5.5.5.5-.224.5-.5-.224-.5-.5-.5z"></path></g><path fill="#f3f3f1" d="m18 7.25c-6.216 0-11.25 4.936-11.25 11.023 0 4.871 3.223 9.002 7.692 10.458.562.104.769-.237.769-.53 0-.262-.009-.705-.014-1.624-3.129.665-3.789-1.479-3.789-1.479-.512-1.272-1.252-1.862-1.252-1.862-1.019-.683.079-.67.079-.67 1.13.077 1.973.885 1.973.885 1.003 1.686 2.633 1.199 3.277.917.101-.713.141-.949.463-1.224-2.498-.276-5.124-1.224-5.124-5.447 0-1.203.436-2.186 1.158-2.958-.127-.278-.506-1.399.098-2.917 0 0 .942-.296 3.094 1.13.9-.245 1.856-.367 2.812-.372.956.005 1.912.127 2.812.372 2.137-1.426 3.08-1.13 3.08-1.13.605 1.518.225 2.639.112 2.917.717.772 1.153 1.755 1.153 2.958 0 4.235-2.63 5.167-5.133 5.438.394.331.759 1.007.759 2.039 0 1.475-.014 2.66-.014 3.018 0 .289.197.634.773.524 4.501-1.446 7.721-5.579 7.721-10.443.001-6.087-5.036-11.023-11.249-11.023z"></path><path fill="#2fdf84" d="m23.877 11.822s-.942-.296-3.08 1.13c-.9-.245-1.856-.367-2.812-.372-.956.005-1.913.127-2.812.372-2.152-1.426-3.094-1.13-3.094-1.13-.605 1.518-.225 2.639-.099 2.917-.722.772-1.158 1.755-1.158 2.958 0 4.224 2.626 5.172 5.124 5.447-.322.276-.361.511-.463 1.224-.643.282-2.273.769-3.277-.917 0 0-.843-.808-1.973-.885 0 0-1.098-.014-.079.67 0 0 .74.59 1.252 1.862 0 0 .66 2.144 3.789 1.479.002.301.004 1.216.006 2.316.896.225 1.83.357 2.797.357.956 0 1.878-.129 2.764-.349.003-1.631.005-3.143.005-3.727 0-1.032-.366-1.709-.759-2.039 2.503-.271 5.133-1.203 5.133-5.438 0-1.203-.436-2.186-1.153-2.958.114-.278.494-1.399-.111-2.917z"></path><path fill="#d5dbe1" d="m12.697 26.432c-1.015-.458-1.29-1.334-1.29-1.334-.007-.018-.015-.033-.023-.051-.431-.541-.817-1.117-1.14-1.732-.052-.049-.088-.079-.088-.079-.602-.404-.462-.562-.25-.625-.582-1.332-.906-2.797-.906-4.338 0-5.715 4.438-10.414 10.125-10.967-.37-.036-.745-.056-1.125-.056-6.216 0-11.25 4.935-11.25 11.023 0 4.871 3.223 9.002 7.692 10.458.562.104.769-.237.769-.53 0-.021 0-.053 0-.077-.918-.451-1.761-1.023-2.514-1.692z"></path><path fill="#00b871" d="M23.047 12.952c.378-.252.705-.435 1.009-.59-.047-.173-.105-.353-.18-.54 0 0-.806-.233-2.589.829.6.058 1.192.146 1.76.301zM17.422 12.952c.545-.149 1.113-.237 1.688-.296-.373-.039-.748-.074-1.125-.076-.354.002-.705.037-1.056.071.161.095.317.183.493.301zM15.947 23.144c-.322.276-.361.511-.463 1.224-.02.009-.049.019-.071.028.884.472 1.858.175 2.321-.028.101-.713.141-.949.463-1.224-2.498-.276-5.124-1.224-5.124-5.447 0-1.203.436-2.186 1.158-2.958-.111-.244-.416-1.139-.08-2.381-1.422-.721-2.072-.536-2.072-.536-.605 1.518-.225 2.639-.099 2.917-.722.772-1.158 1.755-1.158 2.958.001 4.224 2.626 5.172 5.125 5.447zM17.453 28.893c-.002-1.1-.004-2.015-.006-2.316-3.129.665-3.789-1.479-3.789-1.479-.091-.227-.191-.425-.291-.609-.416-.167-.823-.473-1.159-1.037 0 0-.843-.808-1.973-.885 0 0-1.098-.014-.079.67 0 0 .74.59 1.252 1.862 0 0 .66 2.144 3.789 1.479.002.301.004 1.216.006 2.316.896.225 1.83.357 2.797.357.384 0 .758-.035 1.131-.074-.571-.06-1.134-.147-1.678-.284z"></path><path d="m14.641 29.5c-.104 0-.215-.01-.335-.032-5.007-1.624-8.306-6.113-8.306-11.195 0-6.492 5.383-11.773 12-11.773s12 5.281 12 11.773c0 5.09-3.312 9.574-8.242 11.157-.692.137-1.078-.055-1.296-.236-.29-.24-.457-.605-.457-1.001l.003-.612c.004-.565.011-1.421.011-2.407 0-.775-.254-1.266-.492-1.465-.23-.193-.323-.505-.235-.792.087-.288.338-.495.637-.527 2.318-.251 4.464-.993 4.464-4.692 0-.944-.32-1.767-.953-2.447-.198-.213-.255-.521-.146-.792.084-.209.306-.901.043-1.886-.37.073-1.068.298-2.125 1.003-.181.121-.404.156-.613.1-.823-.224-1.705-.341-2.62-.346-.906.005-1.788.122-2.611.346-.21.056-.432.021-.612-.099-1.056-.7-1.755-.928-2.141-.999-.289 1.095.03 1.816.045 1.851.126.276.073.602-.135.824-.634.677-.956 1.5-.956 2.445 0 3.701 2.142 4.447 4.457 4.702.297.033.546.239.634.524.088.286-.001.596-.228.791-.097.083-.115.099-.208.761-.037.257-.204.477-.442.582-1.23.539-2.863.573-3.949-.819.092.178.183.372.267.582.07.201.598 1.524 2.938 1.026.22-.049.45.008.626.149s.279.354.28.58l.014 1.627c0 .396-.167.76-.457 1.002-.171.143-.452.295-.86.295zm-1.58-2.158c.446.231.912.434 1.397.603l-.004-.505c-.523.035-.987-.004-1.393-.098zm8.209-3.636c.163.434.25.933.25 1.468 0 .99-.006 1.85-.011 2.418l-.002.332c4.186-1.422 6.993-5.281 6.993-9.651 0-5.665-4.71-10.273-10.5-10.273s-10.5 4.608-10.5 10.273c0 2.982 1.307 5.732 3.47 7.637-.132-.208-.224-.412-.279-.591-.402-.991-1.002-1.496-1.008-1.501-.179-.116-.892-.594-.671-1.303.14-.452.594-.699 1.232-.698.549.037 1.033.197 1.424.384-.914-.903-1.596-2.307-1.596-4.504 0-1.181.357-2.229 1.062-3.123-.159-.603-.286-1.688.248-3.03.083-.209.257-.371.472-.438.29-.092 1.364-.27 3.45 1.038.853-.204 1.751-.309 2.677-.314.933.005 1.832.111 2.685.314 2.131-1.342 3.231-1.103 3.437-1.038.215.067.389.228.472.438.524 1.314.42 2.385.257 3.025.705.896 1.062 1.946 1.062 3.127-.001 4.426-2.771 5.626-4.624 6.01zm-8.418-.64s0 .001.001.002c.449.753 1.104 1.004 1.957.752.004-.027.009-.054.015-.08-.593-.114-1.294-.31-1.973-.674z"></path></svg>